<?xml version="1.0" encoding="UTF-8"?>
<svg id="Layer_1" data-name="Layer 1" xmlns="http://www.w3.org/2000/svg" viewBox="0 0 3630 1652">
  <defs>
    <style>
      .cls-1 {
        fill: #f89721;
      }

      .cls-2 {
        fill: #fff;
      }

      .cls-3 {
        fill: #151948;
      }
    </style>
  </defs>
  <g>
    <g>
      <path class="cls-3" d="M1388.75,766.69c0,293.82-238.18,532-532,532s-532-238.18-532-532h149c0,211.53,171.47,383,383,383s383-171.47,383-383h149Z"/>
      <path class="cls-3" d="M1084.75,766.69c0,125.92-102.08,228-228,228s-228-102.08-228-228h131c0,53.57,43.43,97,97,97s97-43.43,97-97h131Z"/>
    </g>
    <path class="cls-1" d="M1116.75,340.69c-73.63,0-135.58,50.06-153.66,118h-212.68c-18.08-67.94-80.03-118-153.66-118-87.81,0-159,71.19-159,159s71.19,159,159,159c73.27,0,134.97-49.57,153.39-117h213.22c18.42,67.43,80.12,117,153.39,117,87.81,0,159-71.19,159-159s-71.19-159-159-159ZM596.75,575.69c-41.97,0-76-34.03-76-76s34.03-76,76-76,76,34.03,76,76-34.03,76-76,76ZM1116.75,575.69c-41.97,0-76-34.03-76-76s34.03-76,76-76,76,34.03,76,76-34.03,76-76,76Z"/>
  </g>
  <g>
    <g>
      <g>
        <path class="cls-3" d="M1387.68,766.22c0,293.82-238.18,532-532,532s-532-238.18-532-532h149c0,211.53,171.47,383,383,383s383-171.47,383-383h149Z"/>
        <path class="cls-3" d="M1083.68,766.22c0,125.92-102.08,228-228,228s-228-102.08-228-228h131c0,53.57,43.43,97,97,97s97-43.43,97-97h131Z"/>
      </g>
      <path class="cls-1" d="M1115.69,340.22c-73.63,0-135.58,50.06-153.66,118h-212.68c-18.08-67.94-80.03-118-153.66-118-87.81,0-159,71.19-159,159s71.19,159,159,159c73.27,0,134.97-49.57,153.39-117h213.22c18.42,67.43,80.12,117,153.39,117,87.81,0,159-71.19,159-159s-71.19-159-159-159ZM595.69,575.22c-41.97,0-76-34.03-76-76s34.03-76,76-76,76,34.03,76,76-34.03,76-76,76ZM1115.69,575.22c-41.97,0-76-34.03-76-76s34.03-76,76-76,76,34.03,76,76-34.03,76-76,76Z"/>
    </g>
    <g>
      <g>
        <polygon class="cls-3" points="2008.74 767.95 2008.74 1299.57 1859.22 1299.57 1859.22 1108.61 1652.05 1108.61 1652.05 1299.57 1502.53 1299.57 1502.53 767.23 1652.05 767.23 1652.05 959.09 1859.22 959.09 1859.22 767.95 2008.74 767.95"/>
        <rect class="cls-3" x="1905.89" y="959.08" width="531.78" height="149.52" transform="translate(3205.61 -1137.94) rotate(90)"/>
        <rect class="cls-3" x="2334.81" y="1299.57" width="149.52" height=".16"/>
        <polygon class="cls-3" points="2806.8 1299.71 2657.28 1299.71 2657.22 1299.57 2806.75 1299.57 2806.8 1299.71"/>
        <path class="cls-3" d="M2629.43,995.14c1.24-.4,2.45-.83,3.66-1.33-1.21.5-2.43.95-3.66,1.33Z"/>
        <path class="cls-3" d="M2806.57,967.42c0-.07,0-.14,0-.22.03-.73.06-1.46.09-2.19.03-.79.05-1.57.07-2.36.04-1.48.07-2.97.07-4.47,0-1.63-.04-3.28-.07-4.9-.02-.8-.05-1.61-.07-2.4-3.6-101.54-87.06-182.77-189.52-182.77h-282.33v531.46h149.52v-152.17h115.8l.07.13,57,152.04h149.52l-72.11-192.29-.16-.49c5.87-4.65,11.49-9.63,16.79-14.93,32.18-32.19,52.88-75.9,55.31-124.44ZM2597.71,1019.66h-113.37v-119.56h113.37c33.02,0,59.79,26.77,59.79,59.79,0,16.52-6.7,31.45-17.51,42.26-10.82,10.83-25.76,17.51-42.28,17.51Z"/>
        <path class="cls-3" d="M2633.09,993.8c-1.21.5-2.43.95-3.66,1.33,1.24-.4,2.45-.83,3.66-1.33Z"/>
        <path class="cls-3" d="M2655.49,969.09c-.38,1.22-.83,2.45-1.33,3.64.5-1.19.94-2.4,1.33-3.64Z"/>
        <path class="cls-3" d="M3131.07,748.31c-158.2,0-286.44,128.25-286.44,286.44s128.24,286.44,286.44,286.44,286.44-128.25,286.44-286.44-128.25-286.44-286.44-286.44ZM3131.07,1171.66c-75.61,0-136.91-61.31-136.91-136.91s61.31-136.91,136.91-136.91,136.91,61.31,136.91,136.91-61.32,136.91-136.91,136.91Z"/>
      </g>
      <path class="cls-2" d="M2633.09,993.8c-1.21.5-2.43.95-3.66,1.33,1.24-.4,2.45-.83,3.66-1.33Z"/>
    </g>
  </g>
</svg>