<?xml version="1.0" encoding="UTF-8"?>
<svg id="Layer_1" data-name="Layer 1" xmlns="http://www.w3.org/2000/svg" viewBox="0 0 1610 2005">
  <defs>
    <style>
      .cls-1 {
        fill: #f89721;
      }

      .cls-2 {
        fill: #fff;
      }

      .cls-3 {
        fill: #151948;
      }
    </style>
  </defs>
  <g>
    <g>
      <path class="cls-3" d="M1337,816.06c0,293.82-238.18,532-532,532s-532-238.18-532-532h149c0,211.53,171.47,383,383,383s383-171.47,383-383h149Z"/>
      <path class="cls-3" d="M1033,816.06c0,125.92-102.08,228-228,228s-228-102.08-228-228h131c0,53.57,43.43,97,97,97s97-43.43,97-97h131Z"/>
    </g>
    <path class="cls-1" d="M1065,390.06c-73.63,0-135.58,50.06-153.66,118h-212.68c-18.08-67.94-80.03-118-153.66-118-87.81,0-159,71.19-159,159s71.19,159,159,159c73.27,0,134.97-49.57,153.39-117h213.22c18.42,67.43,80.12,117,153.39,117,87.81,0,159-71.19,159-159s-71.19-159-159-159ZM545,625.06c-41.97,0-76-34.03-76-76s34.03-76,76-76,76,34.03,76,76-34.03,76-76,76ZM1065,625.06c-41.97,0-76-34.03-76-76s34.03-76,76-76,76,34.03,76,76-34.03,76-76,76Z"/>
  </g>
  <g>
    <g>
      <g>
        <path class="cls-3" d="M1335.93,815.6c0,293.82-238.18,532-532,532s-532-238.18-532-532h149c0,211.53,171.47,383,383,383s383-171.47,383-383h149Z"/>
        <path class="cls-3" d="M1031.93,815.6c0,125.92-102.08,228-228,228s-228-102.08-228-228h131c0,53.57,43.43,97,97,97s97-43.43,97-97h131Z"/>
      </g>
      <path class="cls-1" d="M1063.94,389.59c-73.63,0-135.58,50.06-153.66,118h-212.68c-18.08-67.94-80.03-118-153.66-118-87.81,0-159,71.19-159,159s71.19,159,159,159c73.27,0,134.97-49.57,153.39-117h213.22c18.42,67.43,80.12,117,153.39,117,87.81,0,159-71.19,159-159s-71.19-159-159-159ZM543.94,624.59c-41.97,0-76-34.03-76-76s34.03-76,76-76,76,34.03,76,76-34.03,76-76,76ZM1063.94,624.59c-41.97,0-76-34.03-76-76s34.03-76,76-76,76,34.03,76,76-34.03,76-76,76Z"/>
    </g>
    <g>
      <polygon class="cls-3" points="553.51 1442.46 553.51 1737.56 470.51 1737.56 470.51 1631.56 355.51 1631.56 355.51 1737.56 272.51 1737.56 272.51 1442.06 355.51 1442.06 355.51 1548.56 470.51 1548.56 470.51 1442.46 553.51 1442.46"/>
      <rect class="cls-3" x="496.41" y="1548.56" width="295.19" height="83" transform="translate(2234.06 946.06) rotate(90)"/>
      <rect class="cls-3" x="734.5" y="1737.56" width="83" height=".09"/>
      <polygon class="cls-3" points="996.5 1737.64 913.5 1737.64 913.47 1737.56 996.47 1737.56 996.5 1737.64"/>
      <path class="cls-3" d="M965.67,1622.26c-2.94,2.94-6.06,5.71-9.33,8.29l.1.27,40.03,106.74h-83l-31.65-84.4-.03-.07h-64.29v84.47h-83v-295.01h156.73c57.31,0,103.92,45.8,105.24,102.79.02.9.03,1.81.03,2.72,0,.83-.01,1.66-.03,2.48-.71,27.99-12.35,53.27-30.8,71.72Z"/>
      <path class="cls-3" d="M898.05,1568.57c.69-.22,1.36-.46,2.02-.74-.66.28-1.34.53-2.02.74Z"/>
      <path class="cls-3" d="M912.51,1554.11c-.21.68-.46,1.36-.74,2.02.28-.66.52-1.33.74-2.02Z"/>
      <path class="cls-3" d="M1176.5,1431.56c-87.82,0-159,71.19-159,159s71.18,159,159,159,159-71.19,159-159-71.19-159-159-159ZM1176.5,1666.56c-41.97,0-76-34.03-76-76s34.03-76,76-76,76,34.03,76,76-34.04,76-76,76Z"/>
    </g>
    <path class="cls-2" d="M817.5,1515.81h62.94c18.32,0,33.19,14.87,33.19,33.19h0c0,18.32-14.87,33.19-33.19,33.19h-62.94v-66.37h0Z"/>
  </g>
</svg>