<?xml version="1.0" encoding="UTF-8"?>
<svg id="Layer_1" data-name="Layer 1" xmlns="http://www.w3.org/2000/svg" viewBox="0 0 1610 1610">
  <defs>
    <style>
      .cls-1 {
        fill: #f89721;
      }

      .cls-2 {
        fill: #f9f8f7;
      }

      .cls-3 {
        fill: #151948;
      }
    </style>
  </defs>
  <circle class="cls-2" cx="545.5" cy="502.5" r="75.5"/>
  <circle class="cls-2" cx="1064.5" cy="502.5" r="75.5"/>
  <g>
    <g>
      <path class="cls-3" d="M1337,769c0,293.82-238.18,532-532,532s-532-238.18-532-532h149c0,211.53,171.47,383,383,383s383-171.47,383-383h149Z"/>
      <path class="cls-3" d="M1033,769c0,125.92-102.08,228-228,228s-228-102.08-228-228h131c0,53.57,43.43,97,97,97s97-43.43,97-97h131Z"/>
    </g>
    <path class="cls-1" d="M1065,343c-73.63,0-135.58,50.06-153.66,118h-212.68c-18.08-67.94-80.03-118-153.66-118-87.81,0-159,71.19-159,159s71.19,159,159,159c73.27,0,134.97-49.57,153.39-117h213.22c18.42,67.43,80.12,117,153.39,117,87.81,0,159-71.19,159-159s-71.19-159-159-159ZM545,578c-41.97,0-76-34.03-76-76s34.03-76,76-76,76,34.03,76,76-34.03,76-76,76ZM1065,578c-41.97,0-76-34.03-76-76s34.03-76,76-76,76,34.03,76,76-34.03,76-76,76Z"/>
  </g>
</svg>